<svg data-v-423bf9ae="" xmlns="http://www.w3.org/2000/svg" viewBox="0 0 411 90" class="iconLeft"><!----><!----><!----><g data-v-423bf9ae="" id="596cab4a-6e69-40bf-b938-a7ce179c47f6" fill="#193655" transform="matrix(5.65504264831543,0,0,5.65504264831543,135.32366943359375,14.773797988891602)"><path d="M3.60 1.69L6.13 1.69L6.69 3.35L7.69 3.19L7.69 0.70L0.63 0.70L0.49 1.69L1.67 2.16L1.67 9.06L0.50 9.51L0.66 10.50L5.05 10.50L5.19 9.51L3.60 9.07L3.60 6.01L5.15 6.01L5.60 7.14L6.58 6.99L6.58 3.92L5.60 3.77L5.15 4.90L3.60 4.90ZM10.98 9.34L10.98 3.96L10.12 3.81L8.41 3.96L8.57 4.82L9.21 4.82L9.21 9.34L8.32 9.65L8.48 10.50L11.70 10.50L11.87 9.65ZM9.98 0.74C9.49 0.74 9.07 1.15 9.07 1.65C9.07 2.14 9.49 2.56 9.98 2.56C10.49 2.56 10.89 2.14 10.89 1.65C10.89 1.15 10.49 0.74 9.98 0.74ZM15.72 9.34L15.72 0.25L14.90 0.04L13.08 0.25L13.23 1.05L13.96 1.05L13.96 9.34L12.99 9.65L13.16 10.50L16.52 10.50L16.69 9.65ZM19.77 6.38C19.89 5.38 20.48 4.69 21.39 4.69C22.12 4.69 22.68 5.15 22.68 5.98C22.68 6.10 22.67 6.24 22.64 6.38ZM21.70 9.63C20.50 9.63 19.75 8.65 19.73 7.25L24.14 7.25C24.30 6.96 24.44 6.45 24.44 6.08C24.44 4.70 23.07 3.81 21.39 3.81C19.39 3.81 17.81 5.08 17.81 7.22C17.81 9.30 18.97 10.65 21.63 10.65C22.55 10.65 23.44 10.43 24.33 9.70L23.86 8.99C23.14 9.46 22.41 9.63 21.70 9.63ZM28.10 4.96C28.43 4.86 28.85 4.82 29.09 4.82C29.88 4.82 30.49 5.31 30.49 6.93C30.49 8.61 29.72 9.63 28.71 9.63C28.32 9.63 27.94 9.56 27.65 9.45L27.65 0.25L26.84 0.04L24.96 0.25L25.12 1.05L25.90 1.05L25.90 9.93C26.70 10.42 27.64 10.65 28.80 10.65C31.07 10.65 32.38 9.23 32.38 7.08C32.38 4.84 31.32 3.81 29.20 3.81C28.92 3.81 28.43 3.85 28.10 3.95ZM37.00 3.81C34.87 3.81 33.50 5.14 33.50 7.22C33.50 9.31 34.75 10.64 37.00 10.64C39.27 10.64 40.49 9.37 40.49 7.22C40.49 5.08 39.12 3.81 37.00 3.81ZM37.00 4.69C38.04 4.69 38.71 5.61 38.71 7.18C38.71 8.74 38.07 9.76 37.00 9.76C35.91 9.76 35.31 8.72 35.31 7.18C35.31 5.64 35.97 4.69 37.00 4.69ZM48.65 4.82L48.48 3.96L45.72 3.96L45.56 4.82L46.33 5.12L45.04 6.72L45.04 6.12L44.35 5.12L45.07 4.82L44.90 3.96L41.41 3.96L41.24 4.82L42.24 5.12L43.81 7.42L42.25 9.34L41.19 9.65L41.36 10.50L44.02 10.50L44.18 9.65L43.51 9.34L44.74 7.85L44.74 8.37L45.43 9.34L44.72 9.65L44.88 10.50L48.40 10.50L48.57 9.65L47.52 9.34L45.96 7.15L47.60 5.12Z"></path></g><defs data-v-423bf9ae=""><linearGradient data-v-423bf9ae="" gradientTransform="rotate(25)" id="437dc882-d3ed-457b-b8c2-17b7e38a5d46" x1="0%" y1="0%" x2="100%" y2="0%"><stop data-v-423bf9ae="" offset="0%" style="stop-color: rgb(81, 164, 251); stop-opacity: 1;"></stop><stop data-v-423bf9ae="" offset="100%" style="stop-color: rgb(81, 164, 251); stop-opacity: 1;"></stop></linearGradient></defs><g data-v-423bf9ae="" id="a1e72ea1-468d-4e83-bea5-d02eb7f3a2a0" transform="matrix(1.229256272315979,0,0,1.229256272315979,-1.4897942543029785,-13.751076698303223)" stroke="none" fill="url(#437dc882-d3ed-457b-b8c2-17b7e38a5d46)"><path d="M93.552 22.933H6.378c-2.599.986-4.448 3.49-4.448 6.413v48.999c0 3.793 3.095 6.87 6.913 6.87h82.244c3.818 0 6.913-3.077 6.913-6.87V29.346c0-2.923-1.846-5.427-4.448-6.413zM39.69 53.946c-.151.302-.554.604-3.562.824-1.17.086-2.908.147-4.88.176v13.719c0 2.202-1.796 3.979-4.013 3.979s-4.005-1.777-4.005-3.979V54.903c-4.232-.115-7.842-.396-8.209-.907l-.101-.345c0-1.807 10.454-18.116 12.412-18.152.32-.004.701.23 1.267.785 2.937 2.871 11.16 15.316 11.16 17.356l-.069.306zM89.604 18.873c0-3.793-2.458-6.873-5.488-6.873h-25.6c-3.03 0-5.492 3.08-5.492 6.873v1.317h36.581v-1.317z"></path></g><!----></svg>